<svg width="901" height="869" viewBox="0 0 901 869" fill="none" xmlns="http://www.w3.org/2000/svg">
<path d="M738.443 865.97L736.935 867.478L723.151 858.795L733.907 848.039L738.443 865.97Z" fill="#FFBC00"/>
<path d="M725.826 816.093L698.586 843.333L684.802 834.65L721.29 798.163L725.826 816.093Z" fill="#FFBC00"/>
<path d="M713.216 766.217L660.244 819.188L646.454 810.506L708.68 748.28L713.216 766.217Z" fill="#FFBC00"/>
<path d="M700.599 716.34L621.896 795.043L608.106 786.367L696.063 698.41L700.599 716.34Z" fill="#FFBC00"/>
<path d="M687.982 666.464L583.548 770.899L569.758 762.222L683.447 648.533L687.982 666.464Z" fill="#FFBC00"/>
<path d="M675.366 616.588L545.199 746.754L531.409 738.077L670.83 598.657L675.366 616.588Z" fill="#FFBC00"/>
<path d="M658.214 548.78L662.749 566.711L506.851 722.609L493.061 713.933L658.214 548.78Z" fill="#FFBC00"/>
<path d="M900.378 329.082L825.336 404.125L690.542 516.452L879.31 327.684L900.378 329.082Z" fill="#FFBC00"/>
<path d="M841.789 325.185L468.503 698.471L455.874 690.518L450.767 693.734L820.715 323.786L841.789 325.185Z" fill="#FFBC00"/>
<path d="M783.193 321.287L342.72 761.76L282.058 799.956L762.125 319.889L783.193 321.287Z" fill="#FFBC00"/>
<path d="M724.598 317.39L173.993 867.994L172.564 868.894L179.994 839.527L703.53 315.991L724.598 317.39Z" fill="#FFBC00"/>
<path d="M666.002 313.492L193.541 785.953L201.154 755.874L644.934 312.094L666.002 313.492Z" fill="#FFBC00"/>
<path d="M607.413 309.595L214.7 702.307L222.313 672.222L586.339 308.196L607.413 309.595Z" fill="#FFBC00"/>
<path d="M570.658 283.857L235.86 618.655L243.466 588.576L564.231 267.811L570.658 283.857Z" fill="#FFBC00"/>
<path d="M552.8 239.222L250.86 541.162L238.602 530.947L546.379 223.176L552.8 239.222Z" fill="#FFBC00"/>
<path d="M534.942 194.586L216.774 512.755L204.516 502.546L528.521 178.541L534.942 194.586Z" fill="#FFBC00"/>
<path d="M517.084 149.951L182.688 484.348L170.43 474.139L510.664 133.905L517.084 149.951Z" fill="#FFBC00"/>
<path d="M294.279 310.264L148.596 455.947L136.344 445.732L270.207 311.869L294.279 310.264Z" fill="#FFBC00"/>
<path d="M499.227 105.316L354.699 249.844L369.68 212.396L492.806 89.27L499.227 105.316Z" fill="#FFBC00"/>
<path d="M227.335 314.72L114.516 427.54L102.258 417.325L203.263 316.32L227.335 314.72Z" fill="#FFBC00"/>
<path d="M481.369 60.687L396.367 145.689L411.355 108.228L474.948 44.635L481.369 60.687Z" fill="#FFBC00"/>
<path d="M160.391 319.171L80.424 399.139L68.172 388.924L136.32 320.77L160.391 319.171Z" fill="#FFBC00"/>
<path d="M463.511 16.0511L438.047 41.5161L453.029 4.06705L457.096 6.10352e-05L463.511 16.0511Z" fill="#FFBC00"/>
<path d="M93.4479 323.622L46.3379 370.732L34.0859 360.517L69.3819 325.221L93.4479 323.622Z" fill="#FFBC00"/>
<path d="M26.504 328.073L12.252 342.325L0 332.11L2.43201 329.678L26.504 328.073Z" fill="#FFBC00"/>
</svg>
