<svg width="901" height="869" viewBox="0 0 901 869" fill="none" xmlns="http://www.w3.org/2000/svg">
<path d="M738.442 865.97L736.934 867.478L723.15 858.795L733.906 848.039L738.442 865.97Z" fill="black"/>
<path d="M725.826 816.093L698.586 843.333L684.802 834.65L721.29 798.163L725.826 816.093Z" fill="black"/>
<path d="M713.215 766.217L660.244 819.188L646.454 810.506L708.679 748.28L713.215 766.217Z" fill="black"/>
<path d="M700.599 716.34L621.896 795.043L608.106 786.367L696.063 698.41L700.599 716.34Z" fill="black"/>
<path d="M687.982 666.464L583.547 770.899L569.757 762.222L683.446 648.533L687.982 666.464Z" fill="black"/>
<path d="M675.365 616.588L545.199 746.754L531.409 738.077L670.83 598.657L675.365 616.588Z" fill="black"/>
<path d="M658.213 548.78L662.749 566.711L506.851 722.609L493.061 713.933L658.213 548.78Z" fill="black"/>
<path d="M900.378 329.082L825.335 404.125L690.542 516.452L879.31 327.684L900.378 329.082Z" fill="black"/>
<path d="M841.789 325.185L468.503 698.471L455.874 690.518L450.766 693.734L820.714 323.786L841.789 325.185Z" fill="black"/>
<path d="M783.193 321.287L342.72 761.76L282.057 799.956L762.125 319.889L783.193 321.287Z" fill="black"/>
<path d="M724.597 317.39L173.993 867.994L172.564 868.894L179.994 839.527L703.529 315.991L724.597 317.39Z" fill="black"/>
<path d="M666.002 313.492L193.541 785.953L201.153 755.874L644.934 312.094L666.002 313.492Z" fill="black"/>
<path d="M607.412 309.595L214.7 702.307L222.312 672.222L586.338 308.196L607.412 309.595Z" fill="black"/>
<path d="M570.657 283.857L235.859 618.655L243.466 588.576L564.23 267.811L570.657 283.857Z" fill="black"/>
<path d="M552.799 239.222L250.859 541.162L238.602 530.947L546.379 223.176L552.799 239.222Z" fill="black"/>
<path d="M534.942 194.586L216.773 512.755L204.515 502.546L528.521 178.541L534.942 194.586Z" fill="black"/>
<path d="M517.084 149.951L182.687 484.348L170.43 474.139L510.663 133.905L517.084 149.951Z" fill="black"/>
<path d="M294.279 310.264L148.595 455.947L136.343 445.732L270.207 311.869L294.279 310.264Z" fill="black"/>
<path d="M499.226 105.316L354.698 249.844L369.68 212.396L492.805 89.27L499.226 105.316Z" fill="black"/>
<path d="M227.335 314.72L114.515 427.54L102.258 417.325L203.263 316.32L227.335 314.72Z" fill="black"/>
<path d="M481.368 60.687L396.366 145.689L411.354 108.228L474.948 44.635L481.368 60.687Z" fill="black"/>
<path d="M160.391 319.171L80.4231 399.139L68.172 388.924L136.319 320.77L160.391 319.171Z" fill="black"/>
<path d="M463.511 16.051L438.046 41.516L453.028 4.06699L457.096 0L463.511 16.051Z" fill="black"/>
<path d="M93.447 323.622L46.337 370.732L34.0861 360.517L69.3821 325.221L93.447 323.622Z" fill="black"/>
<path d="M26.5031 328.073L12.2511 342.325L0 332.11L2.43201 329.678L26.5031 328.073Z" fill="black"/>
</svg>
