<svg xmlns="http://www.w3.org/2000/svg" width="512" height="512" fill="none" viewBox="0 0 24 24" id="mail">
  <path fill="#000" d="m21.5719 3.02344-9.6235.02344-9.6234-.04688h-.00469c-1.29375 0-2.32031 1.21406-2.32031 2.73281v12.72189c0 1.5187 1.02656 2.7328 2.32031 2.7328h19.26559c1.2938 0 2.3203-1.2141 2.3203-2.7328v-12.72189c0-1.51875-1.0171-2.70937-2.3343-2.70937zm-.7547 1.875-8.5969 7.86096-.0328.0281-.0281.0328c-.1032.1125-.225.1266-.2907.1266-.0656 0-.1874-.0188-.2859-.136l-.0281-.0328-8.2172-7.91716 8.6109.05625zm.7687 14.41406h-19.26559c-.16406 0-.44531-.3094-.44531-.8578v-12.42189l8.325 8.04379c.4219.4687 1.0172.7406 1.65.75h.0281c.6235 0 1.2047-.2578 1.6313-.7078l8.5312-7.80942v12.14532c-.0094.5484-.2906.8578-.4547.8578z"></path>
</svg>
